<?xml version="1.0" standalone="no"?>
<!DOCTYPE svg PUBLIC "-//W3C//DTD SVG 20010904//EN"
 "http://www.w3.org/TR/2001/REC-SVG-20010904/DTD/svg10.dtd">
<svg version="1.0" xmlns="http://www.w3.org/2000/svg"
 width="300.000000pt" height="300.000000pt" viewBox="0 0 300.000000 300.000000"
 preserveAspectRatio="xMidYMid meet">
<metadata>
Created by potrace 1.11, written by Peter Selinger 2001-2013
</metadata>
<g transform="translate(0.000000,300.000000) scale(0.100000,-0.100000)"
fill="#000000" stroke="none">
<path d="M2644 2771 c-60 -37 -182 -221 -447 -676 -273 -468 -629 -1059 -682
-1129 -30 -39 -78 -111 -108 -161 -43 -73 -58 -90 -77 -90 -36 0 -40 38 -25
198 34 341 112 754 209 1092 28 99 51 239 68 412 13 126 4 167 -52 235 -37 44
-110 66 -146 43 -29 -19 -54 -75 -66 -151 -11 -66 -27 -96 -105 -196 -71 -91
-314 -496 -433 -723 -62 -119 -90 -167 -170 -305 -37 -63 -84 -146 -105 -185
-21 -38 -50 -90 -65 -115 -15 -25 -33 -63 -40 -85 -7 -22 -35 -74 -62 -115
-58 -88 -175 -320 -203 -403 -18 -52 -18 -61 -5 -85 20 -35 96 -92 123 -92 25
0 36 19 279 480 87 164 133 250 201 374 32 60 86 165 118 233 91 192 284 525
343 591 31 35 39 6 20 -85 -37 -181 -55 -279 -89 -473 -20 -113 -38 -212 -40
-220 -14 -45 -35 -269 -35 -367 0 -182 50 -292 155 -343 49 -24 83 -21 145 10
84 43 293 286 361 421 16 32 63 109 105 170 42 62 105 165 139 228 34 64 101
185 149 270 47 84 86 155 86 157 0 2 23 46 51 96 29 51 76 140 106 198 30 58
89 156 131 219 42 63 84 131 94 151 23 47 58 81 58 58 0 -27 -37 -197 -89
-403 -27 -110 -59 -245 -71 -300 -11 -55 -32 -149 -44 -210 -56 -259 -65 -305
-81 -390 -9 -49 -20 -112 -26 -140 -73 -385 -74 -390 -73 -510 1 -142 14 -189
63 -222 41 -28 42 -28 71 -3 13 11 31 20 41 20 10 0 20 8 23 18 10 29 27 200
36 352 5 82 16 169 25 200 9 30 20 91 25 135 11 111 45 285 75 380 37 121 60
203 109 395 25 96 52 200 61 230 53 188 95 424 95 537 0 93 -18 157 -60 218
-50 73 -107 92 -166 56z"/>
</g>
</svg>
